<mxfile host="Electron" agent="Mozilla/5.0 (Windows NT 10.0; Win64; x64) AppleWebKit/537.36 (KHTML, like Gecko) draw.io/26.0.4 Chrome/128.0.6613.186 Electron/32.2.5 Safari/537.36" version="26.0.4">
  <diagram name="Page-1" id="64c3da0e-402f-94eb-ee01-a36477274f13">
    <mxGraphModel dx="5949" dy="3639" grid="1" gridSize="10" guides="1" tooltips="1" connect="1" arrows="1" fold="1" page="1" pageScale="1" pageWidth="1169" pageHeight="826" background="none" math="0" shadow="0">
      <root>
        <mxCell id="0" />
        <mxCell id="1" parent="0" />
        <mxCell id="2" value="Class Reference" style="whiteSpace=wrap;rounded=1;shadow=1;fillColor=#10739E;strokeColor=none;fontColor=#FFFFFF;fontStyle=1;fontSize=24" parent="1" vertex="1">
          <mxGeometry x="1190" y="-670" width="340" height="60" as="geometry" />
        </mxCell>
        <mxCell id="3" value="Health" style="whiteSpace=wrap;rounded=1;fillColor=#F2931E;strokeColor=none;shadow=1;fontColor=#FFFFFF;fontStyle=1;fontSize=14" parent="1" vertex="1">
          <mxGeometry x="15" y="-550.0000000000002" width="140" height="60" as="geometry" />
        </mxCell>
        <mxCell id="4" value="GameObjectComparer" style="whiteSpace=wrap;rounded=1;fillColor=#F2931E;strokeColor=none;shadow=1;fontColor=#FFFFFF;fontStyle=1;fontSize=14" parent="1" vertex="1">
          <mxGeometry x="690" y="-550" width="200" height="60" as="geometry" />
        </mxCell>
        <mxCell id="5" value="CameraFollowSmooth" style="whiteSpace=wrap;rounded=1;fillColor=#F2931E;strokeColor=none;shadow=1;fontColor=#FFFFFF;fontStyle=1;fontSize=14" parent="1" vertex="1">
          <mxGeometry x="2400" y="-550" width="170" height="60" as="geometry" />
        </mxCell>
        <mxCell id="6" value="GameManagerSingleton" style="whiteSpace=wrap;rounded=1;fillColor=#F2931E;strokeColor=none;shadow=1;fontColor=#FFFFFF;fontStyle=1;fontSize=14" parent="1" vertex="1">
          <mxGeometry x="1260" y="-550" width="200" height="60" as="geometry" />
        </mxCell>
        <mxCell id="8" value="AddrssableAsync" style="whiteSpace=wrap;rounded=1;fillColor=#F2931E;strokeColor=none;shadow=1;fontColor=#FFFFFF;fontStyle=1;fontSize=14" parent="1" vertex="1">
          <mxGeometry x="1830" y="-550.0000000000002" width="140" height="60" as="geometry" />
        </mxCell>
        <mxCell id="10" value="GameManagerSingleton" style="whiteSpace=wrap;rounded=1;fillColor=#12AAB5;strokeColor=none;shadow=1;fontColor=#FFFFFF;" parent="1" vertex="1">
          <mxGeometry x="115" y="-420" width="150" height="60" as="geometry" />
        </mxCell>
        <mxCell id="43" value="ComparisonResult" style="whiteSpace=wrap;rounded=1;fillColor=#12AAB5;strokeColor=none;shadow=1;fontColor=#FFFFFF;" parent="1" vertex="1">
          <mxGeometry x="729.9999999999998" y="-419.9999999999999" width="120" height="60" as="geometry" />
        </mxCell>
        <mxCell id="103" value="" style="edgeStyle=elbowEdgeStyle;elbow=vertical;rounded=0;fontColor=#000000;endArrow=none;endFill=0;strokeWidth=8;strokeColor=#23445D;" parent="1" source="3" target="10" edge="1">
          <mxGeometry width="100" height="100" relative="1" as="geometry">
            <mxPoint x="-10" y="-430" as="sourcePoint" />
            <mxPoint x="90" y="-530" as="targetPoint" />
          </mxGeometry>
        </mxCell>
        <mxCell id="116" value="" style="edgeStyle=elbowEdgeStyle;elbow=vertical;rounded=0;fontColor=#000000;endArrow=none;endFill=0;strokeWidth=8;strokeColor=#23445D;" parent="1" source="4" target="43" edge="1">
          <mxGeometry width="100" height="100" relative="1" as="geometry">
            <mxPoint x="430" y="-480.0000000000002" as="sourcePoint" />
            <mxPoint x="330" y="-410" as="targetPoint" />
          </mxGeometry>
        </mxCell>
        <mxCell id="133" value="InputController" style="whiteSpace=wrap;rounded=1;fillColor=#12AAB5;strokeColor=none;shadow=1;fontColor=#FFFFFF;" parent="1" vertex="1">
          <mxGeometry x="999.9999999999998" y="-419.9999999999999" width="120" height="60" as="geometry" />
        </mxCell>
        <mxCell id="134" value="PoolInstaller" style="whiteSpace=wrap;rounded=1;fillColor=#12AAB5;strokeColor=none;shadow=1;fontColor=#FFFFFF;" parent="1" vertex="1">
          <mxGeometry x="1199.9999999999998" y="-419.9999999999999" width="120" height="60" as="geometry" />
        </mxCell>
        <mxCell id="135" value="Mono" style="whiteSpace=wrap;rounded=1;fillColor=#999999;strokeColor=none;shadow=1;fontColor=#FFFFFF;fontStyle=0" parent="1" vertex="1">
          <mxGeometry x="999.9999999999998" y="-319.9999999999999" width="120" height="60" as="geometry" />
        </mxCell>
        <mxCell id="140" value="PoolContainerSO" style="whiteSpace=wrap;rounded=1;fillColor=#999999;strokeColor=none;shadow=1;fontColor=#FFFFFF;fontStyle=0" parent="1" vertex="1">
          <mxGeometry x="1199.9999999999993" y="-319.9999999999999" width="120" height="60" as="geometry" />
        </mxCell>
        <mxCell id="141" value="AddrssableAsync" style="whiteSpace=wrap;rounded=1;fillColor=#999999;strokeColor=none;shadow=1;fontColor=#FFFFFF;fontStyle=0" parent="1" vertex="1">
          <mxGeometry x="1199.9999999999995" y="-239.9999999999999" width="120" height="60" as="geometry" />
        </mxCell>
        <mxCell id="142" value="Mono" style="whiteSpace=wrap;rounded=1;fillColor=#999999;strokeColor=none;shadow=1;fontColor=#FFFFFF;fontStyle=0" parent="1" vertex="1">
          <mxGeometry x="1199.9999999999995" y="-159.9999999999999" width="120" height="60" as="geometry" />
        </mxCell>
        <mxCell id="145" value="" style="edgeStyle=elbowEdgeStyle;elbow=horizontal;rounded=0;fontColor=#000000;endArrow=none;endFill=0;strokeWidth=8;strokeColor=#23445D;" parent="1" source="133" target="135" edge="1">
          <mxGeometry width="100" height="100" relative="1" as="geometry">
            <mxPoint x="980" y="-389.99999999999955" as="sourcePoint" />
            <mxPoint x="989.9999999999995" y="-290" as="targetPoint" />
            <Array as="points">
              <mxPoint x="980" y="-340" />
            </Array>
          </mxGeometry>
        </mxCell>
        <mxCell id="150" value="" style="edgeStyle=elbowEdgeStyle;elbow=horizontal;rounded=0;fontColor=#000000;endArrow=none;endFill=0;strokeWidth=8;strokeColor=#23445D;" parent="1" source="134" target="140" edge="1">
          <mxGeometry width="100" height="100" relative="1" as="geometry">
            <mxPoint x="1170" y="-389.99999999999955" as="sourcePoint" />
            <mxPoint x="1179.9999999999995" y="-290" as="targetPoint" />
            <Array as="points">
              <mxPoint x="1180" y="-340" />
            </Array>
          </mxGeometry>
        </mxCell>
        <mxCell id="151" value="" style="edgeStyle=elbowEdgeStyle;elbow=horizontal;rounded=0;fontColor=#000000;endArrow=none;endFill=0;strokeWidth=8;strokeColor=#23445D;" parent="1" source="134" target="141" edge="1">
          <mxGeometry width="100" height="100" relative="1" as="geometry">
            <mxPoint x="1180" y="-390" as="sourcePoint" />
            <mxPoint x="1179.9999999999998" y="-210" as="targetPoint" />
            <Array as="points">
              <mxPoint x="1180" y="-300" />
            </Array>
          </mxGeometry>
        </mxCell>
        <mxCell id="154" value="" style="edgeStyle=elbowEdgeStyle;elbow=horizontal;rounded=0;fontColor=#000000;endArrow=none;endFill=0;strokeWidth=8;strokeColor=#23445D;" parent="1" source="134" target="142" edge="1">
          <mxGeometry width="100" height="100" relative="1" as="geometry">
            <mxPoint x="1180" y="-390" as="sourcePoint" />
            <mxPoint x="1179.9999999999998" y="-130" as="targetPoint" />
            <Array as="points">
              <mxPoint x="1180" y="-250" />
            </Array>
          </mxGeometry>
        </mxCell>
        <mxCell id="155" value="BackgroundMusicSystem" style="whiteSpace=wrap;rounded=1;fillColor=#12AAB5;strokeColor=none;shadow=1;fontColor=#FFFFFF;" parent="1" vertex="1">
          <mxGeometry x="1370" y="-420" width="150" height="60" as="geometry" />
        </mxCell>
        <mxCell id="156" value="ActionSystem" style="whiteSpace=wrap;rounded=1;fillColor=#12AAB5;strokeColor=none;shadow=1;fontColor=#FFFFFF;" parent="1" vertex="1">
          <mxGeometry x="1569.9999999999998" y="-419.9999999999998" width="120" height="60" as="geometry" />
        </mxCell>
        <mxCell id="157" value="BackgroundMusicSO" style="whiteSpace=wrap;rounded=1;fillColor=#999999;strokeColor=none;shadow=1;fontColor=#FFFFFF;fontStyle=0" parent="1" vertex="1">
          <mxGeometry x="1369.9999999999998" y="-319.9999999999998" width="120" height="60" as="geometry" />
        </mxCell>
        <mxCell id="158" value="Mono" style="whiteSpace=wrap;rounded=1;fillColor=#999999;strokeColor=none;shadow=1;fontColor=#FFFFFF;fontStyle=0" parent="1" vertex="1">
          <mxGeometry x="1370" y="-239.99999999999977" width="120" height="60" as="geometry" />
        </mxCell>
        <mxCell id="159" value="AddrssableAsync" style="whiteSpace=wrap;rounded=1;fillColor=#999999;strokeColor=none;shadow=1;fontColor=#FFFFFF;fontStyle=0" parent="1" vertex="1">
          <mxGeometry x="1369.9999999999998" y="-159.99999999999977" width="120" height="60" as="geometry" />
        </mxCell>
        <mxCell id="162" value="Action" style="whiteSpace=wrap;rounded=1;fillColor=#999999;strokeColor=none;shadow=1;fontColor=#FFFFFF;fontStyle=0" parent="1" vertex="1">
          <mxGeometry x="1569.9999999999993" y="-319.9999999999998" width="120" height="60" as="geometry" />
        </mxCell>
        <mxCell id="163" value="WeaponController" style="whiteSpace=wrap;rounded=1;fillColor=#999999;strokeColor=none;shadow=1;fontColor=#FFFFFF;fontStyle=0" parent="1" vertex="1">
          <mxGeometry x="1569.9999999999995" y="-239.99999999999977" width="120" height="60" as="geometry" />
        </mxCell>
        <mxCell id="167" value="" style="edgeStyle=elbowEdgeStyle;elbow=horizontal;rounded=0;fontColor=#000000;endArrow=none;endFill=0;strokeWidth=8;strokeColor=#23445D;" parent="1" source="155" target="157" edge="1">
          <mxGeometry width="100" height="100" relative="1" as="geometry">
            <mxPoint x="1350" y="-389.99999999999943" as="sourcePoint" />
            <mxPoint x="1359.9999999999995" y="-289.9999999999999" as="targetPoint" />
            <Array as="points">
              <mxPoint x="1350" y="-339.9999999999999" />
            </Array>
          </mxGeometry>
        </mxCell>
        <mxCell id="168" value="" style="edgeStyle=elbowEdgeStyle;elbow=horizontal;rounded=0;fontColor=#000000;endArrow=none;endFill=0;strokeWidth=8;strokeColor=#23445D;" parent="1" source="155" target="158" edge="1">
          <mxGeometry width="100" height="100" relative="1" as="geometry">
            <mxPoint x="1360" y="-389.9999999999999" as="sourcePoint" />
            <mxPoint x="1359.9999999999998" y="-209.9999999999999" as="targetPoint" />
            <Array as="points">
              <mxPoint x="1350" y="-299.9999999999999" />
            </Array>
          </mxGeometry>
        </mxCell>
        <mxCell id="171" value="" style="edgeStyle=elbowEdgeStyle;elbow=horizontal;rounded=0;fontColor=#000000;endArrow=none;endFill=0;strokeWidth=8;strokeColor=#23445D;" parent="1" source="155" target="159" edge="1">
          <mxGeometry width="100" height="100" relative="1" as="geometry">
            <mxPoint x="1360" y="-389.9999999999999" as="sourcePoint" />
            <mxPoint x="1359.9999999999998" y="-129.9999999999999" as="targetPoint" />
            <Array as="points">
              <mxPoint x="1350" y="-249.9999999999999" />
            </Array>
          </mxGeometry>
        </mxCell>
        <mxCell id="172" value="" style="edgeStyle=elbowEdgeStyle;elbow=horizontal;rounded=0;fontColor=#000000;endArrow=none;endFill=0;strokeWidth=8;strokeColor=#23445D;" parent="1" source="156" target="162" edge="1">
          <mxGeometry width="100" height="100" relative="1" as="geometry">
            <mxPoint x="1540" y="-389.99999999999943" as="sourcePoint" />
            <mxPoint x="1549.9999999999995" y="-289.9999999999999" as="targetPoint" />
            <Array as="points">
              <mxPoint x="1550" y="-339.9999999999999" />
            </Array>
          </mxGeometry>
        </mxCell>
        <mxCell id="173" value="" style="edgeStyle=elbowEdgeStyle;elbow=horizontal;rounded=0;fontColor=#000000;endArrow=none;endFill=0;strokeWidth=8;strokeColor=#23445D;" parent="1" source="156" target="163" edge="1">
          <mxGeometry width="100" height="100" relative="1" as="geometry">
            <mxPoint x="1550" y="-389.9999999999999" as="sourcePoint" />
            <mxPoint x="1549.9999999999998" y="-209.9999999999999" as="targetPoint" />
            <Array as="points">
              <mxPoint x="1550" y="-299.9999999999999" />
            </Array>
          </mxGeometry>
        </mxCell>
        <mxCell id="179" value="Addressables" style="whiteSpace=wrap;rounded=1;fillColor=#999999;strokeColor=none;shadow=1;fontColor=#FFFFFF;fontStyle=0" parent="1" vertex="1">
          <mxGeometry x="1840" y="-420.0000000000001" width="120" height="60" as="geometry" />
        </mxCell>
        <mxCell id="180" value="Task" style="whiteSpace=wrap;rounded=1;fillColor=#999999;strokeColor=none;shadow=1;fontColor=#FFFFFF;fontStyle=0" parent="1" vertex="1">
          <mxGeometry x="1840" y="-340.0000000000001" width="120" height="60" as="geometry" />
        </mxCell>
        <mxCell id="181" value="Log" style="whiteSpace=wrap;rounded=1;fillColor=#999999;strokeColor=none;shadow=1;fontColor=#FFFFFF;fontStyle=0" parent="1" vertex="1">
          <mxGeometry x="1840" y="-260.0000000000001" width="120" height="60" as="geometry" />
        </mxCell>
        <mxCell id="182" value="Exception" style="whiteSpace=wrap;rounded=1;fillColor=#999999;strokeColor=none;shadow=1;fontColor=#FFFFFF;fontStyle=0" parent="1" vertex="1">
          <mxGeometry x="1840" y="-180.0000000000001" width="120" height="60" as="geometry" />
        </mxCell>
        <mxCell id="189" value="" style="edgeStyle=elbowEdgeStyle;elbow=horizontal;rounded=0;fontColor=#000000;endArrow=none;endFill=0;strokeWidth=8;strokeColor=#23445D;exitX=0;exitY=0.5;exitDx=0;exitDy=0;entryX=0;entryY=0.5;entryDx=0;entryDy=0;" parent="1" source="8" target="179" edge="1">
          <mxGeometry width="100" height="100" relative="1" as="geometry">
            <mxPoint x="1780" y="-490.00000000000034" as="sourcePoint" />
            <mxPoint x="1720" y="-290.0000000000001" as="targetPoint" />
            <Array as="points">
              <mxPoint x="1800" y="-460" />
              <mxPoint x="1740" y="-440" />
              <mxPoint x="1690" y="-390" />
              <mxPoint x="1670" y="-360" />
            </Array>
          </mxGeometry>
        </mxCell>
        <mxCell id="199" value="InputController" style="whiteSpace=wrap;rounded=1;fillColor=#12AAB5;strokeColor=none;shadow=1;fontColor=#FFFFFF;" parent="1" vertex="1">
          <mxGeometry x="2320" y="-420.0000000000003" width="120" height="60" as="geometry" />
        </mxCell>
        <mxCell id="xqmguFVkjhTjHQEfTIsZ-252" style="rounded=0;orthogonalLoop=1;jettySize=auto;html=1;entryX=1;entryY=0.5;entryDx=0;entryDy=0;exitX=0.25;exitY=0;exitDx=0;exitDy=0;" parent="1" source="200" target="6" edge="1">
          <mxGeometry relative="1" as="geometry" />
        </mxCell>
        <mxCell id="200" value="GameManagerSingleton" style="whiteSpace=wrap;rounded=1;fillColor=#12AAB5;strokeColor=none;shadow=1;fontColor=#FFFFFF;" parent="1" vertex="1">
          <mxGeometry x="2520" y="-420" width="160" height="60" as="geometry" />
        </mxCell>
        <mxCell id="201" value="Mono" style="whiteSpace=wrap;rounded=1;fillColor=#999999;strokeColor=none;shadow=1;fontColor=#FFFFFF;fontStyle=0" parent="1" vertex="1">
          <mxGeometry x="2320" y="-320.0000000000003" width="120" height="60" as="geometry" />
        </mxCell>
        <mxCell id="211" value="" style="edgeStyle=elbowEdgeStyle;elbow=horizontal;rounded=0;fontColor=#000000;endArrow=none;endFill=0;strokeWidth=8;strokeColor=#23445D;" parent="1" source="199" target="201" edge="1">
          <mxGeometry width="100" height="100" relative="1" as="geometry">
            <mxPoint x="2300" y="-389.99999999999994" as="sourcePoint" />
            <mxPoint x="2309.9999999999995" y="-290.0000000000004" as="targetPoint" />
            <Array as="points">
              <mxPoint x="2300" y="-340.0000000000004" />
            </Array>
          </mxGeometry>
        </mxCell>
        <mxCell id="221" value="" style="edgeStyle=elbowEdgeStyle;elbow=vertical;rounded=0;fontColor=#000000;endArrow=none;endFill=0;strokeWidth=8;strokeColor=#23445D;" parent="1" source="6" target="133" edge="1">
          <mxGeometry width="100" height="100" relative="1" as="geometry">
            <mxPoint x="970" y="-450" as="sourcePoint" />
            <mxPoint x="1070" y="-550" as="targetPoint" />
          </mxGeometry>
        </mxCell>
        <mxCell id="222" value="" style="edgeStyle=elbowEdgeStyle;elbow=vertical;rounded=0;fontColor=#000000;endArrow=none;endFill=0;strokeWidth=8;strokeColor=#23445D;" parent="1" source="6" target="134" edge="1">
          <mxGeometry width="100" height="100" relative="1" as="geometry">
            <mxPoint x="1220" y="-440" as="sourcePoint" />
            <mxPoint x="1320" y="-540" as="targetPoint" />
          </mxGeometry>
        </mxCell>
        <mxCell id="223" value="" style="edgeStyle=elbowEdgeStyle;elbow=vertical;rounded=0;fontColor=#000000;endArrow=none;endFill=0;strokeWidth=8;strokeColor=#23445D;exitX=0.5;exitY=1;exitDx=0;exitDy=0;" parent="1" source="6" target="155" edge="1">
          <mxGeometry width="100" height="100" relative="1" as="geometry">
            <mxPoint x="1530" y="-420" as="sourcePoint" />
            <mxPoint x="1430" y="-530" as="targetPoint" />
          </mxGeometry>
        </mxCell>
        <mxCell id="224" value="" style="edgeStyle=elbowEdgeStyle;elbow=vertical;rounded=0;fontColor=#000000;endArrow=none;endFill=0;strokeWidth=8;strokeColor=#23445D;exitX=0.5;exitY=1;exitDx=0;exitDy=0;" parent="1" source="6" target="156" edge="1">
          <mxGeometry width="100" height="100" relative="1" as="geometry">
            <mxPoint x="1620" y="-430" as="sourcePoint" />
            <mxPoint x="1720" y="-530" as="targetPoint" />
          </mxGeometry>
        </mxCell>
        <mxCell id="227" value="" style="edgeStyle=elbowEdgeStyle;elbow=vertical;rounded=0;fontColor=#000000;endArrow=none;endFill=0;strokeWidth=8;strokeColor=#23445D;" parent="1" source="5" target="199" edge="1">
          <mxGeometry width="100" height="100" relative="1" as="geometry">
            <mxPoint x="2300" y="-430" as="sourcePoint" />
            <mxPoint x="2400" y="-530" as="targetPoint" />
          </mxGeometry>
        </mxCell>
        <mxCell id="228" value="" style="edgeStyle=elbowEdgeStyle;elbow=vertical;rounded=0;fontColor=#000000;endArrow=none;endFill=0;strokeWidth=8;strokeColor=#23445D;" parent="1" source="5" target="200" edge="1">
          <mxGeometry width="100" height="100" relative="1" as="geometry">
            <mxPoint x="2560" y="-430" as="sourcePoint" />
            <mxPoint x="2660" y="-530" as="targetPoint" />
          </mxGeometry>
        </mxCell>
        <mxCell id="229" value="" style="edgeStyle=elbowEdgeStyle;elbow=vertical;rounded=0;fontColor=#000000;endArrow=none;endFill=0;strokeWidth=8;strokeColor=#23445D;" parent="1" source="2" target="3" edge="1">
          <mxGeometry width="100" height="100" relative="1" as="geometry">
            <mxPoint x="730" y="-580" as="sourcePoint" />
            <mxPoint x="830" y="-680" as="targetPoint" />
          </mxGeometry>
        </mxCell>
        <mxCell id="230" value="" style="edgeStyle=elbowEdgeStyle;elbow=vertical;rounded=0;fontColor=#000000;endArrow=none;endFill=0;strokeWidth=8;strokeColor=#23445D;" parent="1" source="2" target="4" edge="1">
          <mxGeometry width="100" height="100" relative="1" as="geometry">
            <mxPoint x="740" y="-570" as="sourcePoint" />
            <mxPoint x="840" y="-670" as="targetPoint" />
          </mxGeometry>
        </mxCell>
        <mxCell id="231" value="" style="edgeStyle=elbowEdgeStyle;elbow=vertical;rounded=0;fontColor=#000000;endArrow=none;endFill=0;strokeWidth=8;strokeColor=#23445D;" parent="1" source="2" target="6" edge="1">
          <mxGeometry width="100" height="100" relative="1" as="geometry">
            <mxPoint x="750" y="-560" as="sourcePoint" />
            <mxPoint x="850" y="-660" as="targetPoint" />
          </mxGeometry>
        </mxCell>
        <mxCell id="233" value="" style="edgeStyle=elbowEdgeStyle;elbow=vertical;rounded=0;fontColor=#000000;endArrow=none;endFill=0;strokeWidth=8;strokeColor=#23445D;" parent="1" source="2" target="8" edge="1">
          <mxGeometry width="100" height="100" relative="1" as="geometry">
            <mxPoint x="770" y="-540" as="sourcePoint" />
            <mxPoint x="870" y="-640" as="targetPoint" />
          </mxGeometry>
        </mxCell>
        <mxCell id="234" value="" style="edgeStyle=elbowEdgeStyle;elbow=vertical;rounded=0;fontColor=#000000;endArrow=none;endFill=0;strokeWidth=8;strokeColor=#23445D;" parent="1" source="2" target="5" edge="1">
          <mxGeometry width="100" height="100" relative="1" as="geometry">
            <mxPoint x="780" y="-530" as="sourcePoint" />
            <mxPoint x="880" y="-630" as="targetPoint" />
          </mxGeometry>
        </mxCell>
        <mxCell id="xqmguFVkjhTjHQEfTIsZ-237" value="" style="edgeStyle=elbowEdgeStyle;elbow=horizontal;rounded=0;fontColor=#000000;endArrow=none;endFill=0;strokeWidth=8;strokeColor=#23445D;exitX=0;exitY=0.5;exitDx=0;exitDy=0;entryX=0;entryY=0.5;entryDx=0;entryDy=0;" parent="1" source="8" target="180" edge="1">
          <mxGeometry width="100" height="100" relative="1" as="geometry">
            <mxPoint x="1840" y="-510" as="sourcePoint" />
            <mxPoint x="1850" y="-380" as="targetPoint" />
            <Array as="points">
              <mxPoint x="1800" y="-410" />
              <mxPoint x="1750" y="-430" />
              <mxPoint x="1700" y="-380" />
              <mxPoint x="1680" y="-350" />
            </Array>
          </mxGeometry>
        </mxCell>
        <mxCell id="xqmguFVkjhTjHQEfTIsZ-238" value="" style="edgeStyle=elbowEdgeStyle;elbow=horizontal;rounded=0;fontColor=#000000;endArrow=none;endFill=0;strokeWidth=8;strokeColor=#23445D;exitX=0;exitY=0.5;exitDx=0;exitDy=0;entryX=0;entryY=0.5;entryDx=0;entryDy=0;" parent="1" source="8" target="181" edge="1">
          <mxGeometry width="100" height="100" relative="1" as="geometry">
            <mxPoint x="1840" y="-510" as="sourcePoint" />
            <mxPoint x="1850" y="-300" as="targetPoint" />
            <Array as="points">
              <mxPoint x="1800" y="-380" />
              <mxPoint x="1760" y="-420" />
              <mxPoint x="1710" y="-370" />
              <mxPoint x="1690" y="-340" />
            </Array>
          </mxGeometry>
        </mxCell>
        <mxCell id="xqmguFVkjhTjHQEfTIsZ-239" value="" style="edgeStyle=elbowEdgeStyle;elbow=horizontal;rounded=0;fontColor=#000000;endArrow=none;endFill=0;strokeWidth=8;strokeColor=#23445D;exitX=0;exitY=0.5;exitDx=0;exitDy=0;entryX=0;entryY=0.5;entryDx=0;entryDy=0;" parent="1" source="8" target="182" edge="1">
          <mxGeometry width="100" height="100" relative="1" as="geometry">
            <mxPoint x="1820" y="-350" as="sourcePoint" />
            <mxPoint x="1830" y="-140" as="targetPoint" />
            <Array as="points">
              <mxPoint x="1800" y="-250" />
              <mxPoint x="1740" y="-260" />
              <mxPoint x="1690" y="-210" />
              <mxPoint x="1670" y="-180" />
            </Array>
          </mxGeometry>
        </mxCell>
        <mxCell id="xqmguFVkjhTjHQEfTIsZ-241" value="Log" style="whiteSpace=wrap;rounded=1;fillColor=#F2931E;strokeColor=none;shadow=1;fontColor=#FFFFFF;fontStyle=1;fontSize=14" parent="1" vertex="1">
          <mxGeometry x="2850" y="-550.0000000000002" width="140" height="60" as="geometry" />
        </mxCell>
        <mxCell id="xqmguFVkjhTjHQEfTIsZ-242" value="Debug" style="whiteSpace=wrap;rounded=1;fillColor=#999999;strokeColor=none;shadow=1;fontColor=#FFFFFF;fontStyle=0" parent="1" vertex="1">
          <mxGeometry x="2860" y="-420.0000000000001" width="120" height="60" as="geometry" />
        </mxCell>
        <mxCell id="xqmguFVkjhTjHQEfTIsZ-246" value="" style="edgeStyle=elbowEdgeStyle;elbow=horizontal;rounded=0;fontColor=#000000;endArrow=none;endFill=0;strokeWidth=8;strokeColor=#23445D;exitX=0;exitY=0.5;exitDx=0;exitDy=0;entryX=0;entryY=0.5;entryDx=0;entryDy=0;" parent="1" source="xqmguFVkjhTjHQEfTIsZ-241" target="xqmguFVkjhTjHQEfTIsZ-242" edge="1">
          <mxGeometry width="100" height="100" relative="1" as="geometry">
            <mxPoint x="2800" y="-490.00000000000034" as="sourcePoint" />
            <mxPoint x="2740" y="-290.0000000000001" as="targetPoint" />
            <Array as="points">
              <mxPoint x="2820" y="-460" />
              <mxPoint x="2760" y="-440" />
              <mxPoint x="2710" y="-390" />
              <mxPoint x="2690" y="-360" />
            </Array>
          </mxGeometry>
        </mxCell>
        <mxCell id="xqmguFVkjhTjHQEfTIsZ-250" value="" style="edgeStyle=elbowEdgeStyle;elbow=vertical;rounded=0;fontColor=#000000;endArrow=none;endFill=0;strokeWidth=8;strokeColor=#23445D;entryX=0.5;entryY=0;entryDx=0;entryDy=0;exitX=0.5;exitY=1;exitDx=0;exitDy=0;" parent="1" source="2" target="xqmguFVkjhTjHQEfTIsZ-241" edge="1">
          <mxGeometry width="100" height="100" relative="1" as="geometry">
            <mxPoint x="1370" y="-600" as="sourcePoint" />
            <mxPoint x="2280" y="-540" as="targetPoint" />
          </mxGeometry>
        </mxCell>
        <mxCell id="xqmguFVkjhTjHQEfTIsZ-251" value="順便檢查了Mono是否必要&lt;div&gt;如果在這裡的Class底下存在Mono&lt;/div&gt;&lt;div&gt;代表拔了會出問題&lt;/div&gt;" style="text;html=1;align=center;verticalAlign=middle;resizable=0;points=[];autosize=1;strokeColor=none;fillColor=none;" parent="1" vertex="1">
          <mxGeometry x="1260" y="-790" width="200" height="60" as="geometry" />
        </mxCell>
        <mxCell id="xqmguFVkjhTjHQEfTIsZ-253" value="Mono" style="whiteSpace=wrap;rounded=1;fillColor=#999999;strokeColor=none;shadow=1;fontColor=#FFFFFF;fontStyle=0" parent="1" vertex="1">
          <mxGeometry x="2130" y="-420.0000000000001" width="120" height="60" as="geometry" />
        </mxCell>
        <mxCell id="xqmguFVkjhTjHQEfTIsZ-254" value="" style="edgeStyle=elbowEdgeStyle;elbow=horizontal;rounded=0;fontColor=#000000;endArrow=none;endFill=0;strokeWidth=8;strokeColor=#23445D;entryX=0;entryY=0.5;entryDx=0;entryDy=0;exitX=0;exitY=0.5;exitDx=0;exitDy=0;" parent="1" source="5" target="xqmguFVkjhTjHQEfTIsZ-253" edge="1">
          <mxGeometry width="100" height="100" relative="1" as="geometry">
            <mxPoint x="2330" y="-380" as="sourcePoint" />
            <mxPoint x="2330" y="-280" as="targetPoint" />
            <Array as="points">
              <mxPoint x="2090" y="-490" />
            </Array>
          </mxGeometry>
        </mxCell>
        <mxCell id="xqmguFVkjhTjHQEfTIsZ-255" value="FPSDisplay" style="whiteSpace=wrap;rounded=1;fillColor=#F2931E;strokeColor=none;shadow=1;fontColor=#FFFFFF;fontStyle=1;fontSize=14" parent="1" vertex="1">
          <mxGeometry x="3160" y="-550.0000000000002" width="140" height="60" as="geometry" />
        </mxCell>
        <mxCell id="xqmguFVkjhTjHQEfTIsZ-256" value="Mono" style="whiteSpace=wrap;rounded=1;fillColor=#999999;strokeColor=none;shadow=1;fontColor=#FFFFFF;fontStyle=0" parent="1" vertex="1">
          <mxGeometry x="3170" y="-420.0000000000001" width="120" height="60" as="geometry" />
        </mxCell>
        <mxCell id="xqmguFVkjhTjHQEfTIsZ-257" value="" style="edgeStyle=elbowEdgeStyle;elbow=horizontal;rounded=0;fontColor=#000000;endArrow=none;endFill=0;strokeWidth=8;strokeColor=#23445D;exitX=0;exitY=0.5;exitDx=0;exitDy=0;entryX=0;entryY=0.5;entryDx=0;entryDy=0;" parent="1" source="xqmguFVkjhTjHQEfTIsZ-255" target="xqmguFVkjhTjHQEfTIsZ-256" edge="1">
          <mxGeometry width="100" height="100" relative="1" as="geometry">
            <mxPoint x="3110" y="-490.00000000000034" as="sourcePoint" />
            <mxPoint x="3050" y="-290.0000000000001" as="targetPoint" />
            <Array as="points">
              <mxPoint x="3130" y="-460" />
              <mxPoint x="3070" y="-440" />
              <mxPoint x="3020" y="-390" />
              <mxPoint x="3000" y="-360" />
            </Array>
          </mxGeometry>
        </mxCell>
        <mxCell id="YBSwkKUkbNuIGfURtrcY-234" value="" style="edgeStyle=elbowEdgeStyle;elbow=vertical;rounded=0;fontColor=#000000;endArrow=none;endFill=0;strokeWidth=8;strokeColor=#23445D;entryX=0.5;entryY=0;entryDx=0;entryDy=0;exitX=0.5;exitY=1;exitDx=0;exitDy=0;" edge="1" parent="1" source="2" target="xqmguFVkjhTjHQEfTIsZ-255">
          <mxGeometry width="100" height="100" relative="1" as="geometry">
            <mxPoint x="1370" y="-600" as="sourcePoint" />
            <mxPoint x="2930" y="-540" as="targetPoint" />
            <Array as="points">
              <mxPoint x="2290" y="-580" />
            </Array>
          </mxGeometry>
        </mxCell>
        <mxCell id="YBSwkKUkbNuIGfURtrcY-235" value="Mono" style="whiteSpace=wrap;rounded=1;fillColor=#999999;strokeColor=none;shadow=1;fontColor=#FFFFFF;fontStyle=0" vertex="1" parent="1">
          <mxGeometry x="539.9999999999998" y="-419.9999999999999" width="120" height="60" as="geometry" />
        </mxCell>
        <mxCell id="YBSwkKUkbNuIGfURtrcY-236" value="" style="edgeStyle=elbowEdgeStyle;elbow=horizontal;rounded=0;fontColor=#000000;endArrow=none;endFill=0;strokeWidth=8;strokeColor=#23445D;exitX=0;exitY=0.5;exitDx=0;exitDy=0;entryX=0;entryY=0.5;entryDx=0;entryDy=0;" edge="1" parent="1" source="4" target="YBSwkKUkbNuIGfURtrcY-235">
          <mxGeometry width="100" height="100" relative="1" as="geometry">
            <mxPoint x="660" y="-520" as="sourcePoint" />
            <mxPoint x="660" y="-420" as="targetPoint" />
            <Array as="points">
              <mxPoint x="500" y="-460" />
            </Array>
          </mxGeometry>
        </mxCell>
        <mxCell id="YBSwkKUkbNuIGfURtrcY-237" value="ActionSystem" style="whiteSpace=wrap;rounded=1;fillColor=#12AAB5;strokeColor=none;shadow=1;fontColor=#FFFFFF;" vertex="1" parent="1">
          <mxGeometry x="-75.00000000000023" y="-419.9999999999998" width="120" height="60" as="geometry" />
        </mxCell>
        <mxCell id="YBSwkKUkbNuIGfURtrcY-238" value="Action" style="whiteSpace=wrap;rounded=1;fillColor=#999999;strokeColor=none;shadow=1;fontColor=#FFFFFF;fontStyle=0" vertex="1" parent="1">
          <mxGeometry x="-75.00000000000068" y="-319.9999999999998" width="120" height="60" as="geometry" />
        </mxCell>
        <mxCell id="YBSwkKUkbNuIGfURtrcY-239" value="WeaponController" style="whiteSpace=wrap;rounded=1;fillColor=#999999;strokeColor=none;shadow=1;fontColor=#FFFFFF;fontStyle=0" vertex="1" parent="1">
          <mxGeometry x="-75.00000000000045" y="-239.99999999999977" width="120" height="60" as="geometry" />
        </mxCell>
        <mxCell id="YBSwkKUkbNuIGfURtrcY-240" value="" style="edgeStyle=elbowEdgeStyle;elbow=horizontal;rounded=0;fontColor=#000000;endArrow=none;endFill=0;strokeWidth=8;strokeColor=#23445D;" edge="1" parent="1" source="YBSwkKUkbNuIGfURtrcY-237" target="YBSwkKUkbNuIGfURtrcY-238">
          <mxGeometry width="100" height="100" relative="1" as="geometry">
            <mxPoint x="-105" y="-389.99999999999943" as="sourcePoint" />
            <mxPoint x="-95.00000000000045" y="-289.9999999999999" as="targetPoint" />
            <Array as="points">
              <mxPoint x="-95" y="-339.9999999999999" />
            </Array>
          </mxGeometry>
        </mxCell>
        <mxCell id="YBSwkKUkbNuIGfURtrcY-241" value="" style="edgeStyle=elbowEdgeStyle;elbow=horizontal;rounded=0;fontColor=#000000;endArrow=none;endFill=0;strokeWidth=8;strokeColor=#23445D;" edge="1" parent="1" source="YBSwkKUkbNuIGfURtrcY-237" target="YBSwkKUkbNuIGfURtrcY-239">
          <mxGeometry width="100" height="100" relative="1" as="geometry">
            <mxPoint x="-95" y="-389.9999999999999" as="sourcePoint" />
            <mxPoint x="-95.00000000000023" y="-209.9999999999999" as="targetPoint" />
            <Array as="points">
              <mxPoint x="-95" y="-299.9999999999999" />
            </Array>
          </mxGeometry>
        </mxCell>
        <mxCell id="YBSwkKUkbNuIGfURtrcY-242" value="" style="edgeStyle=elbowEdgeStyle;elbow=vertical;rounded=0;fontColor=#000000;endArrow=none;endFill=0;strokeWidth=8;strokeColor=#23445D;exitX=0.5;exitY=1;exitDx=0;exitDy=0;entryX=0.5;entryY=0;entryDx=0;entryDy=0;" edge="1" parent="1" source="3" target="YBSwkKUkbNuIGfURtrcY-237">
          <mxGeometry width="100" height="100" relative="1" as="geometry">
            <mxPoint x="210" y="-480" as="sourcePoint" />
            <mxPoint x="110" y="-410" as="targetPoint" />
          </mxGeometry>
        </mxCell>
        <mxCell id="YBSwkKUkbNuIGfURtrcY-243" style="rounded=0;orthogonalLoop=1;jettySize=auto;html=1;entryX=0;entryY=0.5;entryDx=0;entryDy=0;exitX=1;exitY=0.25;exitDx=0;exitDy=0;" edge="1" parent="1" source="10" target="6">
          <mxGeometry relative="1" as="geometry">
            <mxPoint x="2570" y="-410" as="sourcePoint" />
            <mxPoint x="1470" y="-510" as="targetPoint" />
          </mxGeometry>
        </mxCell>
        <mxCell id="YBSwkKUkbNuIGfURtrcY-244" value="Mono" style="whiteSpace=wrap;rounded=1;fillColor=#999999;strokeColor=none;shadow=1;fontColor=#FFFFFF;fontStyle=0" vertex="1" parent="1">
          <mxGeometry x="-290.0000000000002" y="-419.9999999999999" width="120" height="60" as="geometry" />
        </mxCell>
        <mxCell id="YBSwkKUkbNuIGfURtrcY-245" value="" style="edgeStyle=elbowEdgeStyle;elbow=vertical;rounded=0;fontColor=#000000;endArrow=none;endFill=0;strokeWidth=8;strokeColor=#23445D;exitX=0;exitY=0.5;exitDx=0;exitDy=0;entryX=0.5;entryY=0;entryDx=0;entryDy=0;" edge="1" parent="1" source="3" target="YBSwkKUkbNuIGfURtrcY-244">
          <mxGeometry width="100" height="100" relative="1" as="geometry">
            <mxPoint x="95" y="-480" as="sourcePoint" />
            <mxPoint x="-5" y="-410" as="targetPoint" />
            <Array as="points">
              <mxPoint x="-110" y="-520" />
            </Array>
          </mxGeometry>
        </mxCell>
      </root>
    </mxGraphModel>
  </diagram>
</mxfile>
